<svg width="192" height="192" viewBox="0 0 192 192" fill="none" xmlns="http://www.w3.org/2000/svg">
<circle cx="18" cy="151" r="4" fill="#66CCFF"/>
<rect x="141" y="20" width="6" height="6" fill="#CC66FF"/>
<path d="M168 151L172.33 158.5H163.67L168 151Z" fill="#FF66CC"/>
<path d="M21 126L81 156V136V116V96L21 66V126Z" fill="#BBDDFF"/>
<path d="M81 136V156L101 146L81 136Z" fill="white"/>
<path d="M81 96V116L121 96L141 86V66L121 76L101 86L81 96Z" fill="white"/>
<path d="M81 116V136L101 146L111 151V131L81 116Z" fill="#CC66FF"/>
<path d="M171 101L141 86L121 96L141 106L151 111L171 101Z" fill="#CC66FF"/>
<path d="M111 131V151L171 121V101L151 111L111 131Z" fill="#CC66FF"/>
<path d="M111 131V151L171 121V101L151 111L111 131Z" fill="white"/>
<path d="M81 96L21 66M81 96V116M81 96L101 86L121 76L141 66M81 156L21 126V66M81 156V136M81 156L101 146M21 66L81 36L141 66M141 66V86M81 116V136M81 116L111 131M81 116L121 96M81 136L101 146M141 86L171 101M141 86L121 96M111 131V151M111 131L151 111M111 151L171 121V101M111 151L101 146M171 101L151 111M151 111L141 106L121 96M151 111L121 96" stroke="#5F6368" stroke-linejoin="round"/>
<path d="M81 116V136L101 146L111 151M81 116L111 131M81 116L121 96M111 131V151M111 131L151 111M111 151L171 121V101M171 101L141 86L121 96M171 101L151 111M151 111L141 106L121 96M151 111L121 96" stroke="#CC66FF" stroke-linejoin="round"/>
<path d="M110.5 151C110.5 151.173 110.59 151.334 110.737 151.425C110.885 151.516 111.069 151.525 111.224 151.447L171.224 121.447C171.393 121.363 171.5 121.189 171.5 121V101C171.5 100.827 171.41 100.666 171.263 100.575C171.115 100.484 170.931 100.475 170.776 100.553L110.776 130.553C110.607 130.637 110.5 130.811 110.5 131V151Z" fill="#CC66FF" stroke="#F6FCFF" stroke-linejoin="round"/>
<path d="M21 66L81 36L141 66L81 96L21 66Z" fill="white" stroke="#5F6368" stroke-linejoin="round"/>
<path d="M81 116V96L141 66V86L81 116ZM81 116V156" stroke="#5F6368" stroke-linejoin="round"/>
<path d="M106 94L116 89" stroke="#5F6368" stroke-linejoin="round"/>
<path d="M136 129L146 124" stroke="#F6FCFF" stroke-linejoin="round"/>
<path d="M158 79.1176L161.6 65M167.6 82.7882L177.8 71.2118M173.2 89L188 82.7882" stroke="#5F6368" stroke-dasharray="2 2"/>
</svg>
