<svg width="16px" height="16px" xmlns="http://www.w3.org/2000/svg" viewBox="-50 -50 562 562">
  <path d="M256 25.6v25.6a204 204 0 0 1 144.8 60 204 204 0 0 1 60 144.8 204 204 0 0 1-60 144.8 204 204 0 0 1-144.8 60 204 204 0 0 1-144.8-60 204 204 0 0 1-60-144.8 204 204 0 0 1 60-144.8 204 204 0 0 1 144.8-60V0a256 256 0 1 0 0 512 256 256 0 0 0 0-512v25.6z" />
  <path d="M256 179.2v25.6a51.3 51.3 0 0 1 0 102.4 51.3 51.3 0 0 1 0-102.4v-51.2a102.3 102.3 0 1 0-.1 204.7 102.3 102.3 0 0 0 .1-204.7v25.6z" />
  <path d="M256 204.8h217.6a25.6 25.6 0 0 0 0-51.2H256a25.6 25.6 0 0 0 0 51.2m44.3 76.8L191.5 470.1a25.6 25.6 0 1 0 44.4 25.6l108.8-188.5a25.6 25.6 0 1 0-44.4-25.6m-88.6 0L102.9 93.2a25.7 25.7 0 0 0-35-9.4 25.7 25.7 0 0 0-9.4 35l108.8 188.5a25.7 25.7 0 0 0 35 9.4 25.9 25.9 0 0 0 9.4-35.1" />
</svg>
